<svg width="16" height="16" viewBox="0 0 16 16" fill="none" xmlns="http://www.w3.org/2000/svg"><path fill-rule="evenodd" clip-rule="evenodd" d="M1.6151 1.6154a.9628.9628 0 0 1 .6808-.282h11.407c.2417 0 .3402.0285.3947.0526.0577.0255.1305.0739.286.2294.2072.2072.282.4322.282.6807v11.3686a.6644.6644 0 0 0-.001.0374.9628.9628 0 0 1-.9628.9627H2.2959a.963.963 0 0 1-.9627-.9627V2.2961a.9628.9628 0 0 1 .282-.6807Zm14.223 12.9283a2.2963 2.2963 0 0 1-2.1363 1.4545H2.2959a2.296 2.296 0 0 1-2.296-2.2961V2.2961A2.296 2.296 0 0 1 1.4584.1582a.664.664 0 0 1 .4311-.1581H13.703c.3374 0 .6429.0379.9336.1663.2875.127.5011.3173.69.5062.4815.4815.6725 1.0574.6725 1.6235v11.8133a.6638.6638 0 0 1-.1609.4343Z" fill="#2D3440"/></svg>