<svg width="16" height="17" viewBox="0 0 16 17" fill="none" xmlns="http://www.w3.org/2000/svg"><path fill-rule="evenodd" clip-rule="evenodd" d="M9 2.5246a.6667.6667 0 0 1 .6667-.6667h2.6666a1.9997 1.9997 0 0 1 2 2v9.3333a2 2 0 0 1-2 2H9.6667a.6666.6666 0 1 1 0-1.3333h2.6666a.6664.6664 0 0 0 .4714-.1953.6662.6662 0 0 0 .1953-.4714V3.8579a.6664.6664 0 0 0-.6667-.6667H9.6667A.6667.6667 0 0 1 9 2.5246ZM5.8619 4.7198a.6667.6667 0 0 1 .9428 0l3.3291 3.3291a.6627.6627 0 0 1 .129.177.664.664 0 0 1 .0705.2987.6636.6636 0 0 1-.1998.4759l-3.3288 3.3288a.6667.6667 0 1 1-.9428-.9428L8.057 9.1912H1.6668a.6667.6667 0 1 1 0-1.3333h6.3905L5.8619 5.6627a.6667.6667 0 0 1 0-.9429Z" fill="#2D3440"/></svg>