<svg width="16" height="16" viewBox="0 0 16 16" fill="none" xmlns="http://www.w3.org/2000/svg"><g clip-path="url(#a)"><path fill-rule="evenodd" clip-rule="evenodd" d="M8.002 1.3333h-.0024c-3.6817 0-6.6663 2.9846-6.6663 6.6663 0 3.681 2.9836 6.6652 6.6643 6.6662H8c3.6817 0 6.6662-2.9846 6.6662-6.6662 0-3.681-2.9835-6.6652-6.6643-6.6663Zm0 14.6658-.0024.0001C3.5816 15.9992 0 12.4176 0 7.9996 0 3.5826 3.58.0016 7.9967 0H8c4.418 0 7.9996 3.5815 7.9996 7.9996 0 4.4174-3.5805 7.9985-7.9977 7.9995Z" fill="#2D3440"/></g><defs><clipPath id="a"><path fill="#fff" d="M0 0h16v16H0z"/></clipPath></defs></svg>